<?xml version="1.0" encoding="utf-8"?>
<!-- Generator: Adobe Illustrator 19.2.1, SVG Export Plug-In . SVG Version: 6.00 Build 0)  -->
<svg version="1.1" id="layer" xmlns="http://www.w3.org/2000/svg" xmlns:xlink="http://www.w3.org/1999/xlink" x="0px" y="0px"
	 viewBox="0 0 652 652" style="enable-background:new 0 0 652 652;" xml:space="preserve">
<style type="text/css">
	.st0{fill:#162789;}
	.st1{fill:#FFFFFF;}
</style>
<g>
	<path class="st0" d="M23.3,379.4c-2.3-1.7-3.4-4.6-2.8-7.5c5.6-25.7,41.7-149.4,225.6-186.5C433,147.8,589.9,247.5,617,266
		c2.6,1.8,3.8,4.9,3,7.9c-6.6,26.7-46.1,152.1-217.2,184.4C217,493.5,65.9,410.5,23.3,379.4"/>
	<path class="st1" d="M386.7,320.5c-7,0-13,2.8-17.1,8c-3.9,4.9-5.9,11.6-5.9,19.5c0,16.8,9.3,27.3,24.1,27.3c8.1,0,15.5-3.4,19.6-9
		c0.6-0.8,0.6-1.6-0.1-2.3l-2.8-3c-0.4-0.4-0.8-0.6-1.3-0.6c-0.5,0-0.9,0.2-1.3,0.6c-3.7,3.7-8,5.6-13,5.6c-4.3,0-7.8-1.3-10.3-3.9
		c-2.8-2.9-4.4-7.3-4.5-12.8h32.1c1.1,0,1.8-0.7,1.8-1.7c0.6-9-1.5-16.5-6.1-21.4C398.1,322.6,392.8,320.5,386.7,320.5 M386.6,329.3
		c3.2,0,5.8,1,7.7,2.9c2.1,2.1,3.3,5.3,3.6,9.2h-23.6C375.3,333.1,380.9,329.3,386.6,329.3 M318.5,324.3l-2.8,5.1
		c-0.5,0.9-1.1,1.1-2,0.9c-1.5-0.4-3-0.6-4.4-0.6c-6,0-12.4,4.5-12.4,16.3v26.8c0,1.1-0.8,1.8-1.8,1.8h-6.8c-1,0-1.8-0.7-1.8-1.8
		V345c0-11.2-1.7-17.8-5.9-21.7c-0.5-0.5-1.1-0.8-1-1.5c0.2-0.8,1.2-1.1,2-1.2c5.7-0.5,10.6,3.4,12.9,8.6c3.5-5.5,9.3-8.7,16.2-8.7
		c2.4,0,4.7,0.4,6.9,1.1c0.7,0.2,1.1,0.5,1.3,1C318.9,323.2,318.7,323.8,318.5,324.3 M359.3,358.8c0,5-1.9,9.1-5.4,11.9
		c-3.5,2.9-8.8,4.5-15,4.5c-9,0-16.6-3-21.5-8.1c-0.6-0.7-0.7-1.6,0-2.5l3.2-3.5c0.8-0.9,1.6-0.8,2.4-0.1c4.3,3.5,9.7,5.3,15.6,5.3
		c6.8,0,10.4-2.7,10.4-7c0-2.6-1.3-4.5-4-5.7c-3.7-1.7-9.6-2.1-15.2-3.8c-6.9-2-10.9-6.2-10.9-13.1c0-4.4,2-8.6,5.7-11.7
		c3.7-3.1,8.2-4.6,14.2-4.6c7.5,0,14.1,2.6,18.8,6.8c0.4,0.4,0.6,0.8,0.6,1.3c0,0.5-0.1,0.9-0.5,1.3l-3.2,3.5
		c-0.6,0.7-1.6,0.8-2.3,0.2c-3.4-2.7-8.2-4.3-13-4.3c-6.4,0-10,2.5-10,6.7c0,2.6,1.9,4.1,4.9,5.1c4.9,1.5,10.7,1.7,16.1,4
		C356.4,347.5,359.3,352.3,359.3,358.8 M457.9,323.6c-0.2,0.5-16.9,44.5-18.9,49.6c-3.8,9.7-5.8,14.2-10.9,18.7
		c-6.2,5.5-15.3,6.4-21.6,5.5c-0.6-0.1-1.1-0.3-1.4-0.8c-0.3-0.4-0.3-1-0.1-1.7l1.5-4.2c0.3-0.9,1-1.3,1.9-1.2
		c4.9,0.4,9.1-0.7,12.6-3.4c2.8-2.2,5.2-5.7,6.9-11l-19.6-51.5c-0.2-0.6-0.2-1.2,0.1-1.7c0.3-0.5,1-0.7,1.6-0.7h7.3
		c1,0,1.4,0.5,1.7,1.2l14.4,39l14.4-39c0.2-0.6,0.7-1.2,1.7-1.2h6.7c0.7,0,1.2,0.2,1.6,0.7C458.1,322.4,458.1,323.1,457.9,323.6
		 M189.4,371.4c0.2,0.9,0.1,1.3-0.7,1.9c-1.7,1.2-4.2,1.9-6.7,1.9c-4.7,0-10.3-1.9-10.3-11V323c0-1.1,0.8-1.8,1.8-1.8h6.9
		c1.1,0,1.8,0.8,1.8,1.8v39c0,2.4,0.5,4,1.5,5c0.7,0.7,2,1.1,3.6,1c0.7,0,1,0,1.3,0.2c0.3,0.2,0.4,0.6,0.5,1.2L189.4,371.4z
		 M154.8,307.3c7.1,6.8,10.5,16.3,10.5,29c0,12.5-2.6,21.6-8.5,28.3c-6.1,6.9-14.5,10-27.6,10h-19.7c-1.1,0-1.8-0.7-1.8-1.8v-57.5
		c0-3.6,3.4-4.1,8.6-4.5c0.6,0,1.1,0,1.5,0.4c0.3,0.3,0.5,0.8,0.5,1.4v52.8h9.9c9.4,0,15.5-2.1,19.9-7.2c3.8-4.4,6.2-11.4,6.2-21.9
		c0-9.2-2.4-16.5-7.1-21.7c-5.3-5.8-13.5-8.7-24.3-8.7c-3.4,0-8.7,0.3-13.3,1.2c-0.5,0.1-1.1,0.1-1.6-0.2c-0.5-0.4-0.5-1-0.5-1.5
		v-3.7c0-1.2,0.5-1.9,1.6-2.2c5-1.5,10.3-2.1,17.1-2.1C138.9,297.4,147.8,300.6,154.8,307.3 M169.8,306.1c0-3.8,3.2-6.8,7-6.8
		c3.9,0,7,3.1,7,6.8c0,3.8-3.2,6.8-7,6.8C173,313,169.8,309.9,169.8,306.1 M209.1,374.8c-2.7,0-3.8-0.6-4.9-3.4l-18.1-47.8
		c-0.2-0.5-0.2-1.2,0.1-1.6c0.3-0.5,0.9-0.7,1.6-0.7h7.3c0.8,0,1.4,0.5,1.7,1.2l14.4,39.1l14.4-39.1c0.3-0.7,1-1.2,1.7-1.2h6.7
		c0.7,0,1.3,0.2,1.6,0.7c0.3,0.5,0.4,1.1,0.1,1.8l-18.1,47.7c-1.1,2.8-2.2,3.4-4.9,3.4H209.1z M257.8,320.6c-7,0-13,2.8-17.1,8
		c-3.9,4.9-5.9,11.6-5.9,19.5c0,16.8,9.3,27.3,24.1,27.3c8.1,0,15.5-3.4,19.6-9c0.6-0.8,0.6-1.6-0.1-2.3l-2.8-3
		c-0.4-0.4-0.8-0.6-1.3-0.6c-0.5,0-0.9,0.2-1.3,0.6c-3.7,3.7-8,5.6-13,5.6c-4.3,0-7.8-1.3-10.3-3.9c-2.8-2.9-4.4-7.3-4.5-12.8h32.1
		c1.1,0,1.7-0.7,1.8-1.7c0.6-9-1.5-16.5-6.1-21.4C269.2,322.6,263.9,320.6,257.8,320.6 M257.7,329.3c3.2,0,5.8,1,7.7,2.9
		c2.1,2.1,3.3,5.3,3.6,9.2h-23.5C246.4,333.1,252,329.3,257.7,329.3 M440.5,255c-0.1-0.8,0.1-1.1,0.9-1c15.7,0.3,29.7,5.4,38.3,15.8
		c0.5,0.6-0.3,1.5-1,0.9c-10.2-7.9-21.4-11.8-33.5-12.3c0.3,4.5,1.6,11,4.7,17.3c0.4,0.8-0.8,1.4-1.2,0.8
		C444.7,271.3,441.5,263.5,440.5,255 M474.8,305c-23.6,0.6-35.5-8.3-42.7-18.8c9.3-3.3,24-5,38.9,0c0.8,0.3,1.3-0.8,0.7-1.2
		c-12.6-7.8-31.8-6.6-44.9-1.2c-0.8,0.3-0.9,0.7-0.4,1.5c12.7,21,32.8,24.2,48.6,21.2C475.8,306.3,475.8,305,474.8,305 M581.4,292.5
		c-0.6-0.6-1.2-1-1.8-1.4c-9.9-6.8-21.9-11-34.8-11.9c-3.5-0.3-4.3-1.2-8.7-5c-5.5-4.7-10.7-6.5-17.2-6.3
		c-5.8,0.2-11.6,2.8-15.7,5.8c-6.4-18.9-20.1-33.9-36.1-42.6c-0.6-0.3-0.9-0.1-1,0.5c-2,6-2.2,16.3-0.8,24.1
		c0.2,0.9,1.5,0.8,1.5-0.1c0.1-8,0.8-15.3,2.3-18.5c13.7,8.5,24.7,22.1,30.5,38.3c0,0,0,0,0,0c0.6,1.6,1,3.2,1.4,4.8
		c0,0,0.1-0.1,0.1-0.1c5.8-4.8,12-8,18.5-8.1c8.7-0.1,12.7,4.3,16.7,7.2c-10.6,0.5-23.7,5.2-33.2,11.2c3.4,26.4-8.7,49.8-28.7,60.2
		c-0.9-20.1,6.4-46.9,18.4-62.5c0.5-0.7-0.5-1.6-1.2-0.9c-16,15.9-23.8,44.1-21.2,68.4c0.1,1.1,0.4,1.2,1.4,0.8
		c24.4-9.5,38.6-34.7,35.8-63.9c8.5-4.6,20.1-9.5,33.9-9.7c13.2-0.2,25.3,3,37.3,9.7c0.7,0.4,1.3,0.7,1.9,1.1
		C581.3,294.1,582.1,293.2,581.4,292.5"/>
	<path class="st0" d="M571.6,205.8c-0.1,0.5-0.4,0.5-0.7,0.5h-4.2v13.9c0,0.4-0.2,0.7-0.7,0.7h-1.8c-0.5,0-0.7-0.2-0.7-0.7v-13.9
		h-4.2c-0.4,0-0.6-0.1-0.6-0.5v-1.3c0-0.4,0.2-0.6,0.5-0.6h11.9c0.4,0,0.6,0.1,0.6,0.4v0.2L571.6,205.8z M589.8,220.9h-1.7
		c-0.5,0-0.7-0.3-0.7-0.8l-0.2-10.5l-4.3,10.9c-0.1,0.4-0.4,0.4-0.6,0.4h-1c-0.3,0-0.5-0.1-0.7-0.5l-4.7-10.9l-0.1,10.8
		c0,0.5-0.2,0.6-0.7,0.6h-1.6c-0.4,0-0.5-0.2-0.5-0.6v-0.1l0.4-15.7c0-0.5,0.2-0.7,0.6-0.7h1.5c0.5,0,0.7,0.2,0.8,0.5l5.5,12.6
		l5.2-12.6c0.1-0.4,0.2-0.5,0.7-0.5h1.6c0.4,0,0.6,0.2,0.6,0.6l0.5,15.7v0.1C590.5,220.7,590.3,220.9,589.8,220.9"/>
</g>
</svg>
